<?xml version="1.0" encoding="UTF-8"?>
<!DOCTYPE svg PUBLIC "-//W3C//DTD SVG 1.1//EN" "http://www.w3.org/Graphics/SVG/1.1/DTD/svg11.dtd">
<!-- Creator: CorelDRAW X7 -->
<svg xmlns="http://www.w3.org/2000/svg" xml:space="preserve" width="210mm" height="297mm" version="1.1" style="shape-rendering:geometricPrecision; text-rendering:geometricPrecision; image-rendering:optimizeQuality; fill-rule:evenodd; clip-rule:evenodd"
viewBox="0 0 21000 29700"
 xmlns:xlink="http://www.w3.org/1999/xlink">
 <defs>
  <style type="text/css">
   <![CDATA[
    .str0 {stroke:black;stroke-width:550}
    .fil0 {fill:none}
   ]]>
  </style>
 </defs>
 <g id="Layer_x0020_1">
  <metadata id="CorelCorpID_0Corel-Layer"/>
  <path class="fil0 str0" d="M10513 18274c525,0 949,425 949,949 0,524 -424,949 -949,949 -524,0 -949,-425 -949,-949 0,-524 425,-949 949,-949zm-2424 -994c370,371 370,972 0,1343 -371,370 -972,370 -1343,0 -370,-371 -370,-972 0,-1343 371,-370 972,-370 1343,0zm-3580 3580l-1467 -1467c810,-810 2124,-810 2934,0 810,810 810,2124 0,2934l-1467 -1467zm2567 -5997c0,525 -425,949 -949,949 -524,0 -949,-424 -949,-949 0,-524 425,-949 949,-949 524,0 949,425 949,949zm-5062 0l0 -2074c1146,0 2074,929 2074,2074 0,1146 -928,2075 -2074,2075l0 -2075zm6056 -2424c-371,370 -972,370 -1343,0 -370,-371 -370,-972 0,-1343 371,-370 972,-370 1343,0 370,371 370,972 0,1343zm-3580 -3580l1467 -1467c810,810 810,2124 0,2934 -810,810 -2124,810 -2934,0l1467 -1467zm5997 2567c-525,0 -949,-425 -949,-949 0,-524 424,-949 949,-949 524,0 949,425 949,949 0,524 -425,949 -949,949zm0 -5062l2074 0c0,1146 -929,2074 -2074,2074 -1146,0 -2075,-928 -2075,-2074l2075 0zm2424 6056c-370,-371 -370,-972 0,-1342 371,-371 972,-371 1343,0 370,370 370,971 0,1342 -371,370 -972,370 -1343,0zm3580 -3580l1467 1467c-810,810 -2124,810 -2934,0 -810,-810 -810,-2124 0,-2934l1467 1467zm-2567 5997c0,-525 425,-949 949,-949 524,0 949,424 949,949 0,524 -425,949 -949,949 -524,0 -949,-425 -949,-949zm5062 0l0 2074c-1146,0 -2074,-929 -2074,-2074 0,-1146 928,-2075 2074,-2075l0 2075zm-6056 2424c371,-370 972,-370 1343,0 370,371 370,972 0,1343 -371,370 -972,370 -1343,0 -370,-371 -370,-972 0,-1343zm-2417 6075l-2074 0c0,-1146 929,-2074 2074,-2074 1146,0 2075,928 2075,2074l-2075 0zm5997 -2495l-1467 1467c-810,-810 -810,-2124 0,-2934 810,-810 2124,-810 2934,0l-1467 1467z"/>
 </g>
</svg>
