<?xml version="1.0" encoding="UTF-8"?>
<!DOCTYPE svg PUBLIC "-//W3C//DTD SVG 1.1//EN" "http://www.w3.org/Graphics/SVG/1.1/DTD/svg11.dtd">
<!-- Creator: CorelDRAW X7 -->
<svg xmlns="http://www.w3.org/2000/svg" xml:space="preserve" width="210mm" height="297mm" version="1.1" style="shape-rendering:geometricPrecision; text-rendering:geometricPrecision; image-rendering:optimizeQuality; fill-rule:evenodd; clip-rule:evenodd"
viewBox="0 0 21000 29700"
 xmlns:xlink="http://www.w3.org/1999/xlink">
 <defs>
  <style type="text/css">
   <![CDATA[
    .fil0 {fill:black}
   ]]>
  </style>
 </defs>
 <g id="Layer_x0020_1">
  <metadata id="CorelCorpID_0Corel-Layer"/>
  <g id="_619770432">
   <g>
    <g>
     <path class="fil0" d="M15592 17651c-316,-316 -829,-316 -1145,0l-2539 -2538c880,-1133 1361,-2534 1361,-3973 0,-3573 -2907,-6480 -6479,-6480 -3573,0 -6480,2907 -6480,6480 0,3572 2907,6479 6480,6479 1439,0 2840,-481 3972,-1361l2540 2539c-316,316 -316,830 0,1145l4860 4862c158,157 366,236 573,236 208,0 415,-79 573,-237l1145 -1146c316,-315 316,-829 0,-1145l-4861 -4861zm-4984 -1962l0 0c-1068,896 -2423,1390 -3818,1390 -3276,0 -5940,-2664 -5940,-5939 0,-3276 2664,-5940 5940,-5940 3275,0 5939,2665 5939,5940 0,1395 -494,2752 -1390,3818l0 1c-220,261 -466,507 -731,730zm568 219c133,-122 260,-250 382,-381l2507 2506 -382 382 -2507 -2507zm8895 7368l-1145 1146c-106,105 -276,105 -382,0l-4861 -4861c-105,-106 -105,-277 0,-382l191 -191 955 -955c105,-105 276,-105 382,0l4860 4861c106,106 106,277 0,382z"/>
    </g>
   </g>
   <g>
   </g>
   <g>
   </g>
   <g>
   </g>
   <g>
   </g>
   <g>
   </g>
   <g>
   </g>
   <g>
   </g>
   <g>
   </g>
   <g>
   </g>
   <g>
   </g>
   <g>
   </g>
   <g>
   </g>
   <g>
   </g>
   <g>
   </g>
   <g>
   </g>
  </g>
 </g>
</svg>
