<?xml version="1.0" encoding="UTF-8"?>
<!DOCTYPE svg PUBLIC "-//W3C//DTD SVG 1.1//EN" "http://www.w3.org/Graphics/SVG/1.1/DTD/svg11.dtd">
<!-- Creator: CorelDRAW X7 -->
<svg xmlns="http://www.w3.org/2000/svg" xml:space="preserve" width="210mm" height="297mm" version="1.1" style="shape-rendering:geometricPrecision; text-rendering:geometricPrecision; image-rendering:optimizeQuality; fill-rule:evenodd; clip-rule:evenodd"
viewBox="0 0 21000 29700"
 xmlns:xlink="http://www.w3.org/1999/xlink"
 enable-background="new 0 0 216 146">
 <defs>
  <style type="text/css">
   <![CDATA[
    .fil0 {fill:black}
   ]]>
  </style>
 </defs>
 <g id="Layer_x0020_1">
  <metadata id="CorelCorpID_0Corel-Layer"/>
  <path class="fil0" d="M10179 16076c-454,-105 -813,-456 -931,-905l-262 0c-76,0 -138,-62 -138,-138l0 -366c0,-76 62,-138 138,-138l262 0c118,-449 477,-800 931,-905l0 -288c0,-76 62,-138 138,-138l366 0c76,0 138,62 138,138l0 306c421,123 750,461 862,887l331 0c76,0 138,62 138,138l0 366c0,76 -62,138 -138,138l-331 0c-112,426 -441,764 -862,887l0 306c0,76 -62,138 -138,138l-366 0c-76,0 -138,-62 -138,-138l0 -288zm642 -2106l0 194c0,75 -62,138 -138,138l-366 0c-76,0 -138,-63 -138,-138l0 -219c-282,90 -507,307 -606,584l241 0c75,0 138,62 138,138l0 366c0,76 -63,138 -138,138l-241 0c99,277 324,494 606,584l0 -219c0,-75 62,-138 138,-138l366 0c76,0 138,63 138,138l0 194c249,-101 446,-305 537,-559l-172 0c-75,0 -138,-62 -138,-138l0 -366c0,-76 63,-138 138,-138l172 0c-91,-254 -288,-458 -537,-559z"/>
 </g>
</svg>
