<?xml version="1.0" encoding="utf-8"?>
<!-- Generator: Adobe Illustrator 19.1.0, SVG Export Plug-In . SVG Version: 6.00 Build 0)  -->
<svg version="1.1" id="Layer_1" xmlns="http://www.w3.org/2000/svg" xmlns:xlink="http://www.w3.org/1999/xlink" x="0px" y="0px"
	 viewBox="0 0 361.6 324" style="enable-background:new 0 0 361.6 324;" xml:space="preserve">
<style type="text/css">
	.st0{fill:none;stroke:#FFB6A4;stroke-width:2;stroke-linecap:round;stroke-miterlimit:10;}
	.st1{fill:none;stroke:#FFB6A4;stroke-miterlimit:10;}
	.st2{fill:#FFB6A4;}
	.st3{fill:none;stroke:#FFB6A4;stroke-linecap:round;stroke-miterlimit:10;}
	.st4{fill:none;stroke:#FF4338;stroke-width:2;stroke-linecap:round;stroke-miterlimit:10;}
	.st5{fill:none;stroke:#FF4338;stroke-width:2;stroke-miterlimit:10;}
	.st6{fill:#FFFFFF;}
	.st7{fill:none;}
	.st8{fill:#FF4338;}
	.st9{fill:none;stroke:#FF4338;stroke-linecap:round;stroke-miterlimit:10;}
</style>
<path class="st0" d="M66.4,294.8c0,0,41-56.7,47.3-69c6.2-12.3,17.4-36.8,26.4-40.9c9-4.1,25.1-20.3,29.5-24.6
	c4.2-4,5.1-8.2,20.2-7.4c9.6,0.5,37.4,1.9,47.4,1.6c9.9-0.3,6.4,15.4-2.5,15.5c-8.9,0.2-36.7,0-40.1,0c-3.4,0-12.4,16.5-15.3,18"/>
<line class="st1" x1="187.1" y1="177.8" x2="187.1" y2="239.1"/>
<path class="st0" d="M111.5,323l10-17.7c0,0,3.2-4.2,8.6-6.5c5.6-2.4,18.8-5.9,25.6-7.9c0,0,12.2-4.4,19.2-10.7
	c7-6.3,36.9-4.4,36.9-4.4s11.3-1.1,12.5-2.4c1.2-1.4,9.7-6.2,26.1-8.3c0,0,6-9.8-4.2-13.5c-3.9-1.4-53.7,3.3-68.9-0.5
	c-7.6-1.9-18.7-18.8-19.1-33.6"/>
<path class="st0" d="M185.6,213.1c-4.6,0.2-5.9-1.3-5.9-1.3c-5.9,11.3-20.4,12.8-20.4,12.8"/>
<line class="st0" x1="160.4" y1="227.5" x2="187" y2="230.2"/>
<path class="st0" d="M234.7,170l109.6-0.2c8.2,0,16.4,0.7,16.4,17.9c0,17.2,0,33.3,0,33.3"/>
<path class="st0" d="M247.3,252h97c8.2,0,16.4-0.7,16.4-17.9c0-17.2,0-33.3,0-33.3"/>
<path class="st0" d="M203.4,170c-8.2,0-16.4,0.7-16.4,17.7v46c0,17.1,10.6,18.4,18.8,18.4"/>
<line class="st0" x1="346.3" y1="206.7" x2="346.3" y2="222"/>
<circle class="st2" cx="346.3" cy="201.1" r="1.9"/>
<rect x="212.8" y="177.8" class="st0" width="120.2" height="66.2"/>
<circle class="st0" cx="200.3" cy="213.1" r="4.4"/>
<g>
	<path class="st2" d="M255.3,204.6c0-0.2,0.2-0.4,0.5-0.4h0.6l10,10.6h0v-9.9c0-0.2,0.2-0.5,0.5-0.5h2.2c0.2,0,0.5,0.2,0.5,0.5v16.2
		c0,0.2-0.2,0.4-0.5,0.4h-0.6l-10.1-11.1h0v10.4c0,0.2-0.2,0.5-0.5,0.5h-2.2c-0.2,0-0.5-0.2-0.5-0.5V204.6z"/>
	<path class="st2" d="M286.1,204.2c4.8,0,8.7,3.9,8.7,8.7s-3.9,8.6-8.7,8.6c-4.8,0-8.6-3.8-8.6-8.6S281.3,204.2,286.1,204.2z
		 M286.1,218.4c3,0,5.5-2.5,5.5-5.5s-2.5-5.6-5.5-5.6c-3,0-5.5,2.5-5.5,5.6S283.1,218.4,286.1,218.4z"/>
</g>
<line class="st3" x1="169.8" y1="222.2" x2="170.6" y2="224.8"/>
<line class="st3" x1="172.7" y1="220.8" x2="173.9" y2="224.8"/>
<line class="st3" x1="174.9" y1="218.4" x2="177" y2="224.1"/>
<path class="st0" d="M177.1,229.2c0,0-5.8,15,10.9,14"/>
<line class="st3" x1="177.4" y1="230.2" x2="179.9" y2="238.3"/>
<line class="st3" x1="180.2" y1="229.4" x2="181.8" y2="234.7"/>
<path class="st0" d="M193.6,170.1c0,0-5.4-1.9-6.4-3.5"/>
<path class="st0" d="M158.1,217.4c0,0,1.9-10.5,1-16.3"/>
<line class="st0" x1="179.1" y1="203" x2="179.7" y2="211.8"/>
<line class="st3" x1="166.8" y1="222.3" x2="167.6" y2="224.9"/>
<line class="st3" x1="177.2" y1="215.1" x2="179.3" y2="221.8"/>
<line class="st3" x1="182.3" y1="189" x2="183.5" y2="192.9"/>
<line class="st3" x1="184.8" y1="189" x2="186.9" y2="195.7"/>
<line class="st3" x1="184.1" y1="194.5" x2="187.2" y2="204.5"/>
<line class="st3" x1="184.1" y1="201.8" x2="187.2" y2="211.8"/>
<line class="st3" x1="184.1" y1="209.3" x2="187.2" y2="219.2"/>
<line class="st3" x1="184.1" y1="216" x2="187.2" y2="226"/>
<line class="st3" x1="184.1" y1="222.8" x2="187.2" y2="232.8"/>
<line class="st3" x1="183.6" y1="230.2" x2="187.5" y2="243.2"/>
<line class="st0" x1="187" y1="187.7" x2="179.1" y2="188.1"/>
<line class="st3" x1="179.1" y1="188.2" x2="180.7" y2="193.4"/>
<path class="st0" d="M214.1,170.1c-1.6,0-2.5-1.4-2.5-2.4"/>
<path class="st0" d="M209.1,170.1c1.6,0,2.5-1.4,2.5-2.4"/>
<path class="st0" d="M126.2,24.8c74,0,134,60,134,134"/>
<path class="st0" d="M126,56.1c50.2,0,91.9,36.5,100.1,84.4"/>
<path class="st0" d="M126,91.8c31.9,0,58.8,21.8,66.5,51.3"/>
<polyline class="st0" points="129,29.6 124.1,24.8 129,19.9 "/>
<polyline class="st0" points="129,60.6 124.1,55.8 129,50.9 "/>
<polyline class="st0" points="129,96.6 124.1,91.8 129,86.9 "/>
<path class="st4" d="M147.2,277.3c0,0-29-38.5-34.7-52.2c-5.7-13.7,0.5-28.3,3.5-37.5c3-9.2,8.5-39.5,9.7-45.3
	c1.2-5.8-7.4-17.2-8.2-27.5c-0.7-8.8-1.8-13-7.3-11.3c-5.5,1.7-7,5.6-8.8,14.2c-1.7,8.2-1.5,14.6,1.4,22.3
	c2.3,6.2-3.5,24.2-11.1,24.2s-32.8,0-45,0s-18,0-18-3.2"/>
<path class="st5" d="M21,117.7c0,0-8.3,5.8-11.5,11c-4.2,6.7-5,15.7,0,22c5,6.3,9.2,11.4,14.8,11.8c5.6,0.4,10.2-9,6.2-15.3
	s-8.9-18.2-9.2-22.5C21,120,21,117.7,21,117.7z"/>
<path class="st6" d="M21,113.7"/>
<path class="st5" d="M21,113.7c0,0-14.2-11.5-17.8-17.2c-3.7-5.7-2.5-12,2.2-14.3C10,79.8,21,88.3,21,88.3V113.7z"/>
<path class="st6" d="M5.2,141.3"/>
<path class="st6" d="M5.2,141.3"/>
<path class="st5" d="M6.1,140.7c0,0-3.4,2.8-3.7,7.5c-0.3,4.7,1.8,18,10.8,28.8c9,10.8,17.5,18.8,22.8,13.5c5.3-5.3,1.5-12-2.2-15.8
	c-3.7-3.8-7.7-9-8-12.2"/>
<path class="st5" d="M13.2,177c0,0-9,1.2-10.2,6.3c-1,4.7,1.3,14,5.8,18.4c0.5,0.5,1,0.9,1.6,1.3c5.5,3.5,16.8,8.2,20.3,10.2
	s12.8-7.2,3.3-14.3s-10.7-8.3-13.2-13.3"/>
<path class="st7" d="M49.3,218.8"/>
<path class="st4" d="M21.3,208.7c0,0,13,22.8,20.3,30.8c7.3,8.1,17.4,15.4,21.6,20.1c4.2,4.7,5.2,7.6,5.2,7.6"/>
<path class="st4" d="M21.3,122c0,0,0-83.2,0-101.8S30.2,1,38.9,1"/>
<path class="st4" d="M40,1h46.2c8.8,0,17.6,0.8,17.6,19.2s0,88.4,0,88.4"/>
<rect x="28.7" y="23.5" class="st4" width="66.5" height="119.2"/>
<line class="st4" x1="54.1" y1="12.9" x2="70.6" y2="12.9"/>
<circle class="st8" cx="48.2" cy="12.9" r="2.1"/>
<circle class="st4" cx="61.9" cy="154" r="4.8"/>
<path class="st4" d="M68.8,164.2c0,0-15.5,16.5-22.4,33.8"/>
<path class="st4" d="M110.2,211.4c0,0-0.9,14.2-15.1,19.3"/>
<path class="st4" d="M54.7,251.8c4.8,3.2,7.6,2.7,11.4-2"/>
<line class="st9" x1="13.6" y1="103.1" x2="15.4" y2="109"/>
<line class="st9" x1="27.7" y1="161.6" x2="30.6" y2="170.8"/>
<line class="st9" x1="30.7" y1="163.5" x2="34" y2="174"/>
<line class="st9" x1="33.4" y1="163.5" x2="36.7" y2="174"/>
<line class="st9" x1="36.2" y1="164" x2="38.8" y2="172.4"/>
<line class="st9" x1="38.9" y1="164" x2="40.3" y2="168.5"/>
<line class="st9" x1="38.9" y1="164" x2="41.1" y2="171.3"/>
<line class="st9" x1="41.6" y1="164" x2="43.3" y2="169.6"/>
<line class="st9" x1="44" y1="164" x2="45.4" y2="168.5"/>
<line class="st9" x1="46.8" y1="164" x2="48.1" y2="168.5"/>
<line class="st9" x1="49.4" y1="164" x2="50.7" y2="168.5"/>
<line class="st9" x1="52.1" y1="164" x2="53.4" y2="168.5"/>
<line class="st9" x1="52.1" y1="164" x2="53.4" y2="168.5"/>
<line class="st9" x1="54.8" y1="164" x2="56.1" y2="168.5"/>
<line class="st9" x1="57.4" y1="164" x2="58.7" y2="168.5"/>
<line class="st9" x1="60.1" y1="164" x2="61.4" y2="168.5"/>
<line class="st9" x1="60.1" y1="164" x2="61.4" y2="168.5"/>
<line class="st9" x1="62.8" y1="164" x2="64.1" y2="168.5"/>
<line class="st9" x1="65.2" y1="164" x2="66.6" y2="168.5"/>
<line class="st9" x1="67.9" y1="164" x2="69.3" y2="168.5"/>
<line class="st9" x1="70.5" y1="164" x2="71.9" y2="168.5"/>
<line class="st9" x1="73.2" y1="164" x2="74.6" y2="168.5"/>
<line class="st9" x1="73.2" y1="164" x2="74.6" y2="168.5"/>
<line class="st9" x1="75.9" y1="164" x2="77.3" y2="168.5"/>
<line class="st9" x1="78.5" y1="164" x2="79.9" y2="168.5"/>
<line class="st9" x1="81.2" y1="164" x2="82.6" y2="168.5"/>
<line class="st9" x1="81.2" y1="164" x2="82.6" y2="168.5"/>
<line class="st9" x1="84" y1="164" x2="85.3" y2="168.5"/>
<line class="st9" x1="86.4" y1="164" x2="87.7" y2="168.5"/>
<line class="st9" x1="89.1" y1="164.3" x2="90.5" y2="168.5"/>
<line class="st9" x1="91.6" y1="163.8" x2="93.1" y2="168.5"/>
<line class="st9" x1="94.2" y1="163.5" x2="95.8" y2="168.5"/>
<line class="st9" x1="94.2" y1="163.5" x2="95.8" y2="168.5"/>
<line class="st9" x1="96.6" y1="162" x2="98.2" y2="167.1"/>
<line class="st9" x1="98.2" y1="159.5" x2="99.8" y2="164.5"/>
<line class="st9" x1="99.8" y1="156.2" x2="101.3" y2="161.3"/>
<line class="st9" x1="101.3" y1="153.5" x2="102.5" y2="157.3"/>
<line class="st9" x1="102.5" y1="150.2" x2="103.6" y2="153.5"/>
<line class="st9" x1="103.3" y1="146.4" x2="104.4" y2="149.6"/>
<line class="st9" x1="13.6" y1="95.9" x2="18.1" y2="110.4"/>
<line class="st9" x1="13.6" y1="86.8" x2="21" y2="110.4"/>
<line class="st9" x1="15.8" y1="84.7" x2="21.3" y2="102.2"/>
<g>
	<path class="st8" d="M42.2,81.5l-5.5-8c-0.2-0.3,0-0.7,0.4-0.7h2.5c0.2,0,0.3,0.1,0.4,0.2l3.9,5.5l3.9-5.5c0.1-0.1,0.2-0.2,0.4-0.2
		h2.5c0.4,0,0.6,0.4,0.4,0.7l-5.6,8v7.7c0,0.2-0.2,0.5-0.5,0.5h-2.2c-0.3,0-0.5-0.2-0.5-0.5V81.5z"/>
	<path class="st8" d="M57.8,73.2c0-0.2,0.2-0.5,0.5-0.5h9.8c0.3,0,0.5,0.2,0.5,0.5v2c0,0.2-0.2,0.5-0.5,0.5H61v3.9h5.9
		c0.2,0,0.5,0.2,0.5,0.5v2c0,0.3-0.2,0.5-0.5,0.5H61v4.2h7.1c0.3,0,0.5,0.2,0.5,0.5v2c0,0.2-0.2,0.5-0.5,0.5h-9.8
		c-0.3,0-0.5-0.2-0.5-0.5V73.2z"/>
	<path class="st8" d="M75.8,87.3l0.9-1.5c0.2-0.3,0.6-0.3,0.8-0.2c0.1,0.1,2.1,1.5,3.6,1.5c1.3,0,2.2-0.8,2.2-1.9
		c0-1.2-1-2.1-3.1-2.9c-2.3-0.9-4.5-2.4-4.5-5.2c0-2.1,1.6-4.6,5.4-4.6c2.5,0,4.3,1.3,4.8,1.6c0.2,0.1,0.3,0.6,0.1,0.8l-0.9,1.4
		c-0.2,0.3-0.6,0.5-0.8,0.3c-0.2-0.1-2-1.3-3.3-1.3c-1.4,0-2.1,0.9-2.1,1.7c0,1.1,0.9,1.9,2.8,2.7c2.3,0.9,5,2.3,5,5.4
		c0,2.5-2.1,4.8-5.5,4.8c-3,0-4.8-1.4-5.3-1.9C75.7,87.8,75.6,87.7,75.8,87.3z"/>
</g>
</svg>
